<svg xmlns="http://www.w3.org/2000/svg" width="43" height="44" viewBox="0 0 43 44" fill="none">
  <path d="M19.6773 0C32.4882 0 42.3275 8.81295 42.3275 21.891C42.3275 35.0394 32.4889 43.995 19.6773 43.995H5.30901C2.40719 43.995 0 42.0761 0 38.7356V5.47242C0 2.1319 2.40656 0 5.30901 0H19.6773Z" fill="#FF6900"/>
  <path d="M6.89788 43.9994C10.5734 41.9643 12.3967 40.0995 13.66 38.3491C16.1212 39.4458 18.4901 39.9172 20.6245 39.9172C24.6256 39.9172 28.0365 38.0744 29.8146 34.7867C31.6448 33.6881 32.8584 31.4298 32.9345 29.8165C34.0746 28.3822 34.2851 26.5721 33.9351 25.3503C33.8515 25.0587 33.6145 25.0505 33.2047 25.3C29.599 27.4614 26.1076 28.4916 22.7753 28.4916C20.7546 28.4916 18.6824 28.1704 16.4776 27.5325C16.3205 25.1686 15.8346 23.1876 15.6543 21.9865C15.3966 20.4001 15.763 19.2267 17.504 19.2267C18.7811 19.2267 21.1443 19.551 23.0323 20.4096C24.9028 21.2599 26.0152 22.9343 26.7927 22.9343C27.1082 22.9343 27.4407 22.7382 27.4407 22.0701C27.4407 20.7163 26.958 18.5366 26.3578 17.7604C28.1075 17.6605 29.4978 17.6781 30.2797 17.7667C31.9088 18.0502 31.9854 18.8678 32.3066 19.4008C32.6271 19.9338 33.1714 20.1663 33.8257 20.1663C35.0375 20.1663 35.7929 19.5416 35.7929 17.2853C35.7929 12.3295 32.6648 9.92794 29.3834 9.92794C26.6896 9.92794 25.6494 10.5206 23.0914 10.5206C21.2769 10.5206 19.7735 6.82876 17.7114 6.34292C16.8007 4.31724 14.758 4.08846 13.4997 5.10665C12.3571 4.41152 10.5709 4.78611 10.4973 6.06952C9.18314 5.66288 7.48554 6.37183 8.21712 8.09897C5.00356 8.19011 4.40396 11.0316 6.58425 11.349C3.77734 12.9379 5.06012 15.6813 7.41577 15.098C7.5817 17.0471 8.37173 20.1934 8.37173 22.3667C8.37173 25.3886 7.00096 26.09 5.12737 26.09C3.64661 26.09 1.47322 25.552 0.00062561 25.1322V27.2389C1.49082 27.6098 3.7258 28.0849 5.40266 28.0849C8.35602 28.0849 9.99454 26.3521 9.99454 23.0525C9.99454 19.0005 8.69793 15.3168 9.12343 13.0089L9.01973 12.875C7.54399 14.4149 6.58488 14.0076 6.47992 13.5117C6.26937 12.5186 7.99714 11.3037 8.9839 10.8814C9.00276 10.8166 9.0279 10.7488 9.05492 10.6803C8.13164 10.8229 7.04684 10.706 7.00913 10.0448C6.9645 9.26109 8.53703 8.56156 10.5923 8.73565C10.6312 8.70297 10.6714 8.67029 10.711 8.63698C10.5816 8.58544 10.4439 8.52071 10.2705 8.43146C9.73937 8.15806 9.60989 7.70301 9.78399 7.37305C9.97443 7.0104 10.5552 6.86836 11.0272 6.87841C11.7669 6.89412 12.3961 7.07325 12.8561 7.25992C12.9083 7.23792 12.9605 7.21592 13.0101 7.19707C12.8392 7.06382 12.6908 6.91801 12.6041 6.76968C12.4772 6.55159 12.4457 6.25179 12.6921 6.05758C12.9793 5.83069 13.709 5.75024 14.3683 6.34921C14.5047 6.47302 14.6204 6.59244 14.7247 6.70809C14.7982 6.69426 14.8718 6.6798 14.9466 6.66786C14.8378 6.50005 14.7511 6.3247 14.7228 6.16254C14.6845 5.94005 14.7568 5.70059 15.0182 5.61637C15.3036 5.52398 15.6643 5.67042 15.8522 5.94822C16.0534 6.24613 16.1759 6.61192 16.2532 6.87276C14.7995 7.04182 10.9436 7.92236 10.9436 12.5828C10.9436 17.1275 14.719 21.901 14.719 28.9447C14.7128 31.504 14.1484 34.0715 11.8279 37.0625C10.036 39.3723 7.18951 41.601 2.75098 43.4306C3.51273 43.8039 4.38573 44 5.30964 44H6.89788V43.9994ZM24.6627 15.4035C25.1064 14.0799 25.4929 13.0812 26.2132 12.3194C26.9724 11.5168 27.8159 11.2667 29.6669 11.2667C32.223 11.2667 34.3587 13.8505 34.3587 17.4631C34.3587 17.9999 33.6384 17.9961 33.4071 17.5052C32.5373 15.9698 31.3594 15.7492 29.5047 15.6128C28.1358 15.5323 26.4841 15.6486 24.9801 15.7127C24.6985 15.7266 24.6199 15.5305 24.6627 15.4035ZM16.5078 29.8975C18.5303 30.4594 21.3266 30.7592 23.6457 30.5964C27.7229 30.3105 30.7831 28.7926 32.5058 27.6871C31.4713 30.301 27.589 31.9251 23.8249 32.3845C23.8004 32.575 23.7721 32.7604 23.7381 32.9401C26.5614 32.7899 29.2426 31.8723 30.4582 31.0345C29.763 33.6057 26.31 34.639 23.1744 34.788C23.0857 34.9897 22.9927 35.1808 22.8959 35.3612C24.7218 35.3938 26.4696 35.0551 27.5117 34.727C26.574 36.5164 23.3397 37.9299 20.045 37.9299C18.4254 37.9299 16.4053 37.6144 14.6518 36.7797C15.9189 34.4624 16.4072 32.0873 16.5078 29.8975Z" fill="black"/>
  <path d="M0 33.6649C1.54487 33.3581 3.06524 33.0734 3.06524 33.0734L3.25882 32.2407C2.56117 32.2055 1.17908 32.2218 0 32.2532V33.6649Z" fill="black"/>
  <path d="M16.6505 8.79347C17.1903 8.61183 17.9659 9.14418 18.3807 9.97883C18.7956 10.8135 18.6931 11.6406 18.1545 11.8185C17.6196 12.0077 16.8472 11.4753 16.4299 10.6369C16.3733 10.5238 16.3293 10.4112 16.2916 10.3006L16.3859 10.2742C16.5587 10.4383 16.7655 10.4835 16.9031 10.3949C17.0929 10.2705 17.0728 9.93924 16.9132 9.65327C16.7988 9.41946 16.5342 9.17372 16.3148 9.19257L16.2765 9.14292C16.3576 8.97574 16.482 8.85192 16.6505 8.79347ZM20.4335 17.1903C18.0168 16.6593 15.3708 15.9578 13.9604 13.8838C13.934 13.8454 13.8863 13.8278 13.841 13.8404C13.7964 13.853 13.7643 13.8938 13.7625 13.9403C13.7574 14.0535 13.7725 14.1773 13.7977 14.3011L13.606 14.3734C13.2339 13.8498 13.1585 13.2131 13.5268 12.7562C14.0579 12.0982 15.1351 12.166 15.7781 12.5714L15.6964 12.7487C15.3513 12.6909 15.0226 12.6908 14.7662 12.8467C14.5481 12.9793 14.5179 13.1761 14.6524 13.4262C15.824 15.604 19.2299 16.076 23.2775 15.7611C23.6954 15.7284 23.7916 15.5399 23.8456 15.3388C24.197 13.9366 24.8343 12.6871 25.7833 11.7336C25.0454 11.8373 24.3591 11.8606 23.7602 11.8933C21.6697 12.0253 20.4743 11.7506 20.101 11.4527L20.1695 11.271C20.392 11.3477 20.6226 11.3647 20.6704 11.3C20.7358 11.2113 20.6855 11.156 20.5837 11.0668C20.1871 10.6947 18.4034 8.867 18.4071 8.87769C18.2142 7.33156 15.9635 7.27625 15.0666 8.79661L14.7618 8.71491C14.8504 8.38117 14.9837 8.10965 15.1081 7.91167C13.2282 8.33654 12.1591 10.0228 11.9656 11.6532C11.1322 18.6573 21.7558 17.0389 24.7915 19.8439C24.8494 19.8892 24.9933 20.0947 25.0976 19.9646C25.2151 19.5831 23.8777 17.9521 20.4335 17.1903Z" fill="white"/>
  <path d="M32.5033 27.6833C30.7812 28.7876 27.7179 30.308 23.6432 30.594C21.3253 30.7568 18.5259 30.4551 16.5046 29.8938C16.4738 30.5676 16.4053 31.264 16.2897 31.966C17.4285 32.2589 19.4574 32.6454 22.3837 32.7278C22.2536 33.5147 21.4541 36.1852 19.4096 37.9117C23.1373 38.0682 26.5155 36.6182 27.5086 34.7233C26.4671 35.0514 24.7174 35.3901 22.8928 35.3574C22.9896 35.1771 23.0826 34.9866 23.1712 34.7842C26.3043 34.6359 29.7605 33.6001 30.4556 31.0308C29.2407 31.868 26.557 32.7862 23.7356 32.9364C23.7696 32.7573 23.7979 32.5713 23.8224 32.3808C27.584 31.9214 31.4688 30.2954 32.5033 27.6833Z" fill="white"/>
</svg>